<?xml version="1.0" encoding="utf-8"?>
<!-- Generator: Adobe Illustrator 19.0.0, SVG Export Plug-In . SVG Version: 6.00 Build 0)  -->
<svg version="1.1" id="Warstwa_1" xmlns="http://www.w3.org/2000/svg" xmlns:xlink="http://www.w3.org/1999/xlink" x="0px" y="0px"
	 viewBox="-193 -132.9 612 665.9" style="enable-background:new -193 -132.9 612 665.9;" xml:space="preserve">
<style type="text/css">
	.st0{fill:#FFFFFF;}
	.st1{fill:#E9B776;}
	.st2{opacity:0.16;fill:url(#SVGID_1_);enable-background:new    ;}
	.st3{opacity:0.16;fill:url(#SVGID_2_);enable-background:new    ;}
</style>
<g>
	<path class="st0" d="M270.6,331c2.1-12.6,2.5-20.4,2.5-20.4H117.8H-37.4c0,0,9,176.7,155.3,183.3c50-2.4,83.9-24.5,106.9-52.6
		l-0.1,0.1c24.1,2.1,38.5,10.1,68.5-32.2C345,336.2,286.3,331.1,270.6,331z M117.8,482.7c-128.3-5.9,0-160.8,0-160.8H254
		C254,321.9,246.1,476.7,117.8,482.7z M280,402.5c-13,17.7-20.8,26.6-45.2,25.2c-0.1,0.1-0.2,0.2-0.4,0.4
		c18.8-27.8,28.5-59.3,33.5-82.6v0.1C267.9,345.6,327.6,338.1,280,402.5z"/>
	<path class="st0" d="M122.4,489.1c-79.2,0-152.8-7.9-213.6-21.4c-3.9-0.9-5.1,6.3-1.2,7.4c58,17.2,131.9,27.5,212.5,27.5
		c74.1,0,142.5-8.7,198.2-23.5c3.9-1,2.8-8.2-1.1-7.5C260.2,482.8,193.6,489.1,122.4,489.1z"/>
	<path class="st1" d="M56.8,260.5c0,0,154.6-11.5,83.6-141.6c-24.8-45.7-36.3-83.2-35.3-115.6c1.3-41.6,23.3-74.7,64.2-105.8
		c0,0-238.3,60.9-99.2,248.5C121.1,228,56.8,260.5,56.8,260.5L56.8,260.5z"/>
	<path class="st1" d="M220.1,92.1c-43.3-67.8-40.8-111.1-2-154.9c0,0-138.1,60.1-38,179c37.9,52.6,2,80,2,80S274.3,176.5,220.1,92.1
		z"/>
	
		<linearGradient id="SVGID_1_" gradientUnits="userSpaceOnUse" x1="90.8655" y1="321.15" x2="139.0536" y2="321.15" gradientTransform="matrix(1 0 0 -1 0 400.2)">
		<stop  offset="0" style="stop-color:#000000;stop-opacity:0.1"/>
		<stop  offset="0.9852" style="stop-color:#000000"/>
	</linearGradient>
	<path class="st2" d="M139.4,118.4c-24.8-45.7-36.3-83.2-35.3-115.6c1.1-35.7,17.5-65.1,47.9-92.4C92.8-56.5,24.9,11.9,114.9,133.2
		c51,82-13.3,114.5-13.3,114.5s7.4-1.9,16.7-6.2C151.1,223.4,177.3,187.7,139.4,118.4z"/>
	
		<linearGradient id="SVGID_2_" gradientUnits="userSpaceOnUse" x1="165.3624" y1="338.4999" x2="237.221" y2="338.4999" gradientTransform="matrix(1 0 0 -1 0 400.2)">
		<stop  offset="0" style="stop-color:#000000;stop-opacity:0.1"/>
		<stop  offset="0.9852" style="stop-color:#000000"/>
	</linearGradient>
	<path class="st3" d="M220.1,92.1c-42.7-66.9-40.9-110-3.5-153.2c-34.4,23.8-87.7,79.1-14.9,165.6c37.9,52.6,2,80,2,80
		s4.8-1,11.6-3.6C234.9,166.4,250.5,139.4,220.1,92.1z"/>
</g>
</svg>
