<?xml version="1.0" encoding="utf-8"?>
<!-- Generator: Adobe Illustrator 19.0.0, SVG Export Plug-In . SVG Version: 6.00 Build 0)  -->
<svg version="1.1" id="Warstwa_1" xmlns="http://www.w3.org/2000/svg" xmlns:xlink="http://www.w3.org/1999/xlink" x="0px" y="0px"
	 viewBox="0 64.1 612 665.9" style="enable-background:new 0 64.1 612 665.9;" xml:space="preserve">
<style type="text/css">
	.st0{fill:#FFFFFF;}
	.st1{fill:#E9B776;}
</style>
<path class="st0" d="M461.7,524.8c2.1-12.6,2.5-20.4,2.5-20.4H308.9H153.7c0,0,9,176.7,155.3,183.3c50-2.4,83.9-24.5,106.9-52.6
	l-0.1,0.1c24.1,2.1,38.5,10.1,68.5-32.2C536.1,530,477.4,524.9,461.7,524.8z M308.9,676.5c-128.3-5.9,0-160.8,0-160.8h136.2
	C445.1,515.7,437.2,670.5,308.9,676.5z M471.1,596.3c-13,17.7-20.8,26.6-45.2,25.2c-0.1,0.1-0.2,0.2-0.4,0.4
	c18.8-27.8,28.5-59.3,33.5-82.6v0.1C459,539.4,518.7,531.9,471.1,596.3z"/>
<path class="st0" d="M313.5,682.9c-79.2,0-152.8-7.9-213.6-21.4c-3.9-0.9-5.1,6.3-1.2,7.4c58,17.2,131.9,27.5,212.5,27.5
	c74.1,0,142.5-8.7,198.2-23.5c3.9-1,2.8-8.2-1.1-7.5C451.3,676.6,384.7,682.9,313.5,682.9z"/>
<path class="st1" d="M247.9,454.3c0,0,154.6-11.5,83.6-141.6c-56.8-104.5-43.8-166,28.9-221.4c0,0-238.3,60.9-99.2,248.5
	C312.2,421.8,247.9,454.3,247.9,454.3L247.9,454.3z"/>
<path class="st1" d="M411.2,285.9c-43.3-67.8-40.8-111.1-2-154.9c0,0-138.1,60.1-38,179c37.9,52.6,2,80,2,80
	S465.4,370.3,411.2,285.9z"/>
</svg>
